# xmcd
#
# Track frame offsets:
#       150
#       18579
#       43182
#       63473
#       85342
#       106975
#       122682
#       147317
#       175012
#       205768
#       226054
#       247195
#
# Disc length: 3712 seconds
#
# Revision: 0
# Processed by: cddbd v1.5.2PL0 Copyright (c) Steve Scherf et al.
# Submitted via: WaveLab 4.01
#
DISCID=a40e7e0c
DTITLE=Joseph Jubely - Bèl Karayib
DYEAR=2008
DGENRE=Belka
TTITLE0=LIMYE A RIVE
TTITLE1=BEL KARAYIB
TTITLE2=RECONCILIATION
TTITLE3=RESPECTE MAMAN
TTITLE4=LE TEMPS EST ARRIVE
TTITLE5=TAN BONDYE LA
TTITLE6=NOU ENBA LIMYE A
TTITLE7=HOSANNA
TTITLE8=LANMOU BONDYE
TTITLE9=FANM E NOM
TTITLE10=NOWEL SE NOWEL
TTITLE11=LOUE SOIT L ETERNEL
EXTD=
EXTT0=
EXTT1=
EXTT2=
EXTT3=
EXTT4=
EXTT5=
EXTT6=
EXTT7=
EXTT8=
EXTT9=
EXTT10=
EXTT11=
PLAYORDER=
